<svg width="44" height="41" viewBox="0 0 44 41" fill="none" xmlns="http://www.w3.org/2000/svg">
<path opacity="0.49" d="M19.996 0.152497C8.12489 1.06809 -0.778424 10.8554 0.0740217 22.0004C0.926467 33.1453 11.2505 41.4488 23.09 40.5332C34.9611 39.6176 43.8645 29.8302 43.012 18.6853C42.1596 7.54036 31.8671 -0.763093 19.996 0.152497ZM25.0791 12.7813C24.4792 13.7601 23.311 14.0758 22.3007 13.539C21.543 13.097 20.9116 11.9289 19.7434 11.2659C18.0385 10.3187 16.0495 10.9817 14.755 13.0339C13.4606 15.1176 13.8079 17.0751 15.7022 18.1486C16.9335 18.8432 18.2595 18.7484 18.9541 19.1589C19.9013 19.6956 20.0907 20.8638 19.4908 21.8109C18.6384 23.2001 15.8601 23.3895 12.9239 21.7478C8.85106 19.443 7.74602 14.9914 10.3665 10.7291C12.9238 6.56162 17.5649 5.17246 21.9535 7.60351C24.7949 9.15054 25.9947 11.2659 25.0791 12.7813Z" fill="black"/>
</svg>
